<svg xmlns="http://www.w3.org/2000/svg" width="1em" height="1em" viewBox="0 0 32 20" fill="none">
<path d="M32 18.784C31.5343 18.9601 31.0202 18.9598 30.5547 18.7829C30.0893 18.606 29.7046 18.265 29.4733 17.824L24.8734 11.4627L24.2067 10.5733L18.8694 17.832C18.652 18.2545 18.2882 18.5833 17.846 18.757C17.4038 18.9308 16.9135 18.9375 16.4667 18.776L23.344 9.54932L16.9467 1.21466C17.4067 1.04889 17.9097 1.04669 18.3712 1.20843C18.8326 1.37017 19.2242 1.68598 19.48 2.10266L24.248 8.54266L29.0427 2.12932C29.2617 1.71437 29.6256 1.39437 30.0651 1.23016C30.5047 1.06595 30.9892 1.06897 31.4267 1.23866L28.944 4.53332L25.5814 8.91066C25.488 8.99396 25.4132 9.09606 25.3621 9.21026C25.3109 9.32446 25.2845 9.44818 25.2845 9.57332C25.2845 9.69846 25.3109 9.82219 25.3621 9.93639C25.4132 10.0506 25.488 10.1527 25.5814 10.236L31.9867 18.7853L32 18.784ZM0.00268266 9.43466L0.562683 6.66799C2.10135 1.19732 8.37335 -1.07868 12.688 2.30799C15.2147 4.29332 15.8454 7.10399 15.7214 10.272H1.48802C1.25735 15.9293 5.34002 19.3453 10.56 17.6C11.4062 17.2954 12.1637 16.7856 12.7645 16.1164C13.3653 15.4472 13.7907 14.6394 14.0027 13.7653C14.2787 12.8773 14.7333 12.7253 15.568 12.9813C15.4289 14.0645 15.046 15.102 14.4481 16.0159C13.8502 16.9297 13.0528 17.6961 12.116 18.2573C10.5686 19.1038 8.79312 19.4392 7.04352 19.2158C5.29391 18.9924 3.65975 18.2215 2.37468 17.0133C1.10406 15.5832 0.336118 13.7766 0.188016 11.8693C0.188016 11.556 0.0813493 11.2627 0.00934933 10.9813C0.0028587 10.4662 -0.000252476 9.95112 1.5995e-05 9.43599L0.00268266 9.43466ZM1.50535 9.05332H14.3774C14.2974 4.95199 11.7093 2.04266 8.25735 2.01599C4.41468 1.96266 1.66535 4.80799 1.49602 9.03466L1.50535 9.05332Z" fill="currentColor"/>
</svg>