<svg xmlns="http://www.w3.org/2000/svg" width="1em" height="1em" viewBox="0 0 50 50" fill="none">
            <path
                d="M44.4444 0C45.9179 0 47.3309 0.585316 48.3728 1.62718C49.4147 2.66905 50 4.08213 50 5.55556V44.4444C50 45.9179 49.4147 47.3309 48.3728 48.3728C47.3309 49.4147 45.9179 50 44.4444 50H5.55556C4.08213 50 2.66905 49.4147 1.62718 48.3728C0.585316 47.3309 0 45.9179 0 44.4444V5.55556C0 4.08213 0.585316 2.66905 1.62718 1.62718C2.66905 0.585316 4.08213 0 5.55556 0H44.4444ZM39.1806 43.0556C41.3207 43.0556 43.0556 41.3207 43.0556 39.1806V28.3333C43.0556 25.9316 42.1015 23.6283 40.4032 21.9301C38.705 20.2318 36.4017 19.2778 34 19.2778C32.3703 19.2778 30.5552 19.966 29.1487 21.1048C28.6157 21.5364 27.5556 21.1716 27.5556 20.4857C27.5556 20.1101 27.251 19.8056 26.8754 19.8056H23.6806C21.5405 19.8056 19.8056 21.5405 19.8056 23.6806V39.1806C19.8056 41.3207 21.5405 43.0556 23.6806 43.0556C25.8207 43.0556 27.5556 41.3207 27.5556 39.1806V29.3611C27.5556 27.2222 29.2778 25.4722 31.4167 25.4722C32.4481 25.4722 33.4372 25.8819 34.1665 26.6112C34.8958 27.3406 35.3056 28.3297 35.3056 29.3611V39.1806C35.3056 41.3207 37.0405 43.0556 39.1806 43.0556ZM10.7778 15.4444C12.0155 15.4444 13.2024 14.9528 14.0776 14.0776C14.9528 13.2024 15.4444 12.0155 15.4444 10.7778C15.4444 8.19444 13.3611 6.08333 10.7778 6.08333C9.53273 6.08333 8.33868 6.57792 7.4583 7.4583C6.57792 8.33868 6.08333 9.53273 6.08333 10.7778C6.08333 13.3611 8.19444 15.4444 10.7778 15.4444ZM10.7917 43.0556C12.9164 43.0556 14.6389 41.3331 14.6389 39.2083V23.6528C14.6389 21.528 12.9164 19.8056 10.7917 19.8056C8.66691 19.8056 6.94444 21.528 6.94444 23.6528V39.2083C6.94444 41.3331 8.66691 43.0556 10.7917 43.0556Z"
                fill="#808CF7" />
        </svg>